<mxfile host="app.diagrams.net" modified="2024-05-11T09:12:21.111Z" agent="Mozilla/5.0 (Macintosh; Intel Mac OS X 10_15_7) AppleWebKit/605.1.15 (KHTML, like Gecko) Version/17.3.1 Safari/605.1.15" version="24.3.1" etag="16NS6yXGUal-tkCweuk-" type="github">
  <diagram name="Page-1" id="58E1JMQa7h-kO4GehDN9">
    <mxGraphModel>
      <root>
        <mxCell id="0" />
        <mxCell id="1" parent="0" />
      </root>
    </mxGraphModel>
  </diagram>
</mxfile>
